#N canvas 0 0 500 400 grain-voice 10;
#X obj 10 10 inlet;
#X obj 80 10 inlet;
#X obj 150 10 inlet;
#X obj 220 10 inlet;
#X obj 290 10 inlet;
#X obj 360 10 inlet;
#N canvas 0 0 450 350 grain-env 10;
#X obj 10 10 inlet;
#X obj 10 40 t f f;
#X obj 10 70 * 0.5;
#X obj 80 70 - 1;
#X obj 10 100 line~;
#X obj 80 100 line~;
#X obj 10 130 *~;
#X obj 10 160 outlet;
#X obj 10 190 outlet;
#X connect 0 0 1 0;
#X connect 1 0 2 0;
#X connect 1 1 3 0;
#X connect 2 0 4 0;
#X connect 3 0 5 0;
#X connect 4 0 6 0;
#X connect 5 0 6 1;
#X connect 6 0 7 0;
#X connect 1 0 8 0;
#X restore 10 260 pd grain-env;
#X obj 10 50 route trigger;
#X obj 10 80 t b f f f f f;
#X obj 10 120 tabread4~ grain-buf;
#X obj 80 120 phasor~;
#X obj 10 160 *~;
#X obj 80 160 * 0.007874;
#X obj 80 190 +;
#X obj 150 190 / 127;
#X obj 150 160 * 3.75;
#X obj 10 200 *~;
#X obj 80 240 pan~;
#X obj 10 280 outlet~;
#X obj 80 280 outlet~;
#X obj 220 120 del;
#X obj 220 150 t b;
#X obj 10 230 *~;
#X msg 220 80 stop;
#X obj 220 50 inlet;
#X connect 0 0 7 0;
#X connect 1 0 12 0;
#X connect 2 0 11 0;
#X connect 3 0 13 0;
#X connect 4 0 14 0;
#X connect 5 0 24 0;
#X connect 7 0 8 0;
#X connect 7 1 9 0;
#X connect 7 2 10 0;
#X connect 7 3 11 0;
#X connect 7 4 12 0;
#X connect 7 5 14 0;
#X connect 8 0 6 0;
#X connect 9 0 10 0;
#X connect 10 0 20 0;
#X connect 11 0 9 0;
#X connect 12 0 20 1;
#X connect 13 0 15 0;
#X connect 14 0 15 0;
#X connect 15 0 16 0;
#X connect 16 0 17 0;
#X connect 17 0 18 0;
#X connect 18 0 19 0;
#X connect 19 0 20 0;
#X connect 20 0 21 0;
#X connect 21 0 22 0;
#X connect 21 1 22 1;
#X connect 22 0 23 0;
#X connect 22 1 24 1;
