#N canvas 50 50 900 700 granular-noise 12;
#X text 10 5 GRANULAR NOISE - Pi Zero + RaspiAudio MIC+ - CC25-CC40;
#N canvas 0 0 900 700 MIDI-INPUT 12;
#X obj 10 30 ctlin;
#X obj 10 60 route 20 21 22 23 24 25 26 27 28 29 30 31 32 33 34 35;
#X obj 10 100 s grain-size;
#X obj 70 100 s grain-density;
#X obj 130 100 s grain-pos;
#X obj 190 100 s grain-scatter;
#X obj 250 100 s grain-pitch;
#X obj 310 100 s grain-pitch-rnd;
#X obj 370 100 s grain-env;
#X obj 430 100 s grain-pan;
#X obj 490 100 s reverb-amt;
#X obj 550 100 s filter-freq;
#X obj 610 100 s filter-res;
#X obj 670 100 s freeze;
#X obj 730 100 s record-trig;
#X obj 790 100 s distort-amt;
#X obj 850 100 s master-vol;
#X obj 910 100 s dry-wet;
#X connect 0 0 1 0;
#X connect 1 0 2 0;
#X connect 1 1 3 0;
#X connect 1 2 4 0;
#X connect 1 3 5 0;
#X connect 1 4 6 0;
#X connect 1 5 7 0;
#X connect 1 6 8 0;
#X connect 1 7 9 0;
#X connect 1 8 10 0;
#X connect 1 9 11 0;
#X connect 1 10 12 0;
#X connect 1 11 13 0;
#X connect 1 12 14 0;
#X connect 1 13 15 0;
#X connect 1 14 16 0;
#X connect 1 15 17 0;
#X restore 20 40 pd MIDI-INPUT;
#N canvas 0 0 900 700 BUFFER 12;
#X obj 10 10 table grain-buf 96000;
#X obj 10 60 adc~;
#X obj 10 90 tabwrite~ grain-buf;
#X obj 200 10 loadbang;
#X obj 200 40 noise~;
#X obj 200 70 tabwrite~ grain-buf;
#X obj 200 100 delay 2100;
#X msg 200 130 stop;
#X obj 10 150 r record-trig;
#X obj 10 180 * 0.007874;
#X obj 10 210 > 63;
#X obj 10 240 sel 1;
#X msg 10 270 bang;
#X obj 10 330 r freeze;
#X obj 10 360 * 0.007874;
#X obj 10 390 > 63;
#X obj 10 420 sel 1;
#X msg 10 450 stop;
#X connect 3 0 5 0;
#X connect 3 0 6 0;
#X connect 4 0 5 0;
#X connect 6 0 7 0;
#X connect 7 0 5 0;
#X connect 1 0 2 0;
#X connect 8 0 9 0;
#X connect 9 0 10 0;
#X connect 10 0 11 0;
#X connect 11 0 12 0;
#X connect 12 0 2 0;
#X connect 13 0 14 0;
#X connect 14 0 15 0;
#X connect 15 0 16 0;
#X connect 16 0 17 0;
#X connect 17 0 2 0;
#X restore 20 80 pd BUFFER;
#N canvas 0 0 900 700 SCHEDULER 12;
#X obj 10 10 r grain-density;
#X obj 10 40 * 0.007874;
#X obj 10 70 expr max(10\, 1000 / (($f1 * 100) + 1));
#X obj 10 100 metro 200;
#X obj 10 130 t b b b b;
#X obj 10 170 s trig-1;
#X obj 90 170 s trig-2;
#X obj 170 170 s trig-3;
#X obj 250 170 s trig-4;
#X obj 10 220 r grain-pos;
#X obj 10 250 * 0.007874;
#X obj 10 280 s pos-n;
#X obj 10 330 r grain-scatter;
#X obj 10 360 * 0.007874;
#X obj 10 390 s scatter-n;
#X obj 10 440 r grain-size;
#X obj 10 470 expr max(10\, $f1 * 0.007874 * 490 + 10);
#X obj 10 500 s size-ms;
#X obj 10 550 r grain-pitch;
#X obj 10 580 expr $f1 * 0.007874 * 3.75 + 0.25;
#X obj 10 610 s pitch-ratio;
#X obj 10 660 r grain-pan;
#X obj 10 690 * 0.007874;
#X obj 10 720 s pan-spread-n;
#X connect 9 0 10 0;
#X connect 10 0 11 0;
#X connect 12 0 13 0;
#X connect 13 0 14 0;
#X connect 15 0 16 0;
#X connect 16 0 17 0;
#X connect 18 0 19 0;
#X connect 19 0 20 0;
#X connect 21 0 22 0;
#X connect 22 0 23 0;
#X connect 0 0 1 0;
#X connect 1 0 2 0;
#X connect 2 0 3 0;
#X connect 3 0 4 0;
#X connect 4 0 5 0;
#X connect 4 1 6 0;
#X connect 4 2 7 0;
#X connect 4 3 8 0;
#X restore 20 120 pd SCHEDULER;
#N canvas 0 0 900 700 VOICE-1 12;
#X obj 10 10 r trig-1;
#X obj 10 40 r pos-n;
#X obj 10 70 r scatter-n;
#X obj 10 100 r size-ms;
#X obj 10 130 r pitch-ratio;
#X obj 10 160 r pan-spread-n;
#X obj 200 70 random 1000;
#X obj 200 100 * 0.002;
#X obj 200 130 - 1;
#X obj 200 160 *;
#X obj 10 200 +;
#X obj 10 230 clip 0 1;
#X obj 10 260 * 95999;
#X obj 10 290 expr 1000 / $f1;
#X obj 10 320 phasor~;
#X obj 10 350 *~ 95999;
#X obj 10 380 +~ 0;
#X obj 10 410 tabread4~ grain-buf;
#X obj 200 320 phasor~;
#X obj 200 350 cos~;
#X obj 200 380 *~ -0.5;
#X obj 200 410 +~ 0.5;
#X obj 10 450 *~;
#X obj 350 160 random 1000;
#X obj 350 190 * 0.002;
#X obj 350 220 - 1;
#X obj 350 250 *;
#X obj 350 280 f;
#X obj 10 490 *~ 0.5;
#X obj 200 490 *~ 0.5;
#X obj 10 530 s~ vout1-L;
#X obj 200 530 s~ vout1-R;
#X connect 0 0 6 0;
#X connect 0 0 23 0;
#X connect 2 0 9 0;
#X connect 6 0 7 0;
#X connect 7 0 8 0;
#X connect 8 0 9 1;
#X connect 1 0 10 0;
#X connect 9 0 10 1;
#X connect 10 0 11 0;
#X connect 11 0 12 0;
#X connect 12 0 16 1;
#X connect 3 0 13 0;
#X connect 13 0 14 0;
#X connect 13 0 18 0;
#X connect 14 0 15 0;
#X connect 15 0 16 0;
#X connect 16 0 17 0;
#X connect 18 0 19 0;
#X connect 19 0 20 0;
#X connect 20 0 21 0;
#X connect 17 0 22 0;
#X connect 21 0 22 1;
#X connect 5 0 26 0;
#X connect 23 0 24 0;
#X connect 24 0 25 0;
#X connect 25 0 26 1;
#X connect 26 0 27 0;
#X connect 22 0 28 0;
#X connect 22 0 29 0;
#X connect 28 0 30 0;
#X connect 29 0 31 0;
#X restore 20 160 pd VOICE-1;
#N canvas 0 0 900 700 VOICE-2 12;
#X obj 10 10 r trig-2;
#X obj 10 40 r pos-n;
#X obj 10 70 r scatter-n;
#X obj 10 100 r size-ms;
#X obj 10 130 r pitch-ratio;
#X obj 10 160 r pan-spread-n;
#X obj 200 70 random 1000;
#X obj 200 100 * 0.002;
#X obj 200 130 - 1;
#X obj 200 160 *;
#X obj 10 200 +;
#X obj 10 230 clip 0 1;
#X obj 10 260 * 95999;
#X obj 10 290 expr 1000 / $f1;
#X obj 10 320 phasor~;
#X obj 10 350 *~ 95999;
#X obj 10 380 +~ 0;
#X obj 10 410 tabread4~ grain-buf;
#X obj 200 320 phasor~;
#X obj 200 350 cos~;
#X obj 200 380 *~ -0.5;
#X obj 200 410 +~ 0.5;
#X obj 10 450 *~;
#X obj 350 160 random 1000;
#X obj 350 190 * 0.002;
#X obj 350 220 - 1;
#X obj 350 250 *;
#X obj 350 280 f;
#X obj 10 490 *~ 0.5;
#X obj 200 490 *~ 0.5;
#X obj 10 530 s~ vout2-L;
#X obj 200 530 s~ vout2-R;
#X connect 0 0 6 0;
#X connect 0 0 23 0;
#X connect 2 0 9 0;
#X connect 6 0 7 0;
#X connect 7 0 8 0;
#X connect 8 0 9 1;
#X connect 1 0 10 0;
#X connect 9 0 10 1;
#X connect 10 0 11 0;
#X connect 11 0 12 0;
#X connect 12 0 16 1;
#X connect 3 0 13 0;
#X connect 13 0 14 0;
#X connect 13 0 18 0;
#X connect 14 0 15 0;
#X connect 15 0 16 0;
#X connect 16 0 17 0;
#X connect 18 0 19 0;
#X connect 19 0 20 0;
#X connect 20 0 21 0;
#X connect 17 0 22 0;
#X connect 21 0 22 1;
#X connect 5 0 26 0;
#X connect 23 0 24 0;
#X connect 24 0 25 0;
#X connect 25 0 26 1;
#X connect 26 0 27 0;
#X connect 22 0 28 0;
#X connect 22 0 29 0;
#X connect 28 0 30 0;
#X connect 29 0 31 0;
#X restore 20 200 pd VOICE-2;
#N canvas 0 0 900 700 VOICE-3 12;
#X obj 10 10 r trig-3;
#X obj 10 40 r pos-n;
#X obj 10 70 r scatter-n;
#X obj 10 100 r size-ms;
#X obj 10 130 r pitch-ratio;
#X obj 10 160 r pan-spread-n;
#X obj 200 70 random 1000;
#X obj 200 100 * 0.002;
#X obj 200 130 - 1;
#X obj 200 160 *;
#X obj 10 200 +;
#X obj 10 230 clip 0 1;
#X obj 10 260 * 95999;
#X obj 10 290 expr 1000 / $f1;
#X obj 10 320 phasor~;
#X obj 10 350 *~ 95999;
#X obj 10 380 +~ 0;
#X obj 10 410 tabread4~ grain-buf;
#X obj 200 320 phasor~;
#X obj 200 350 cos~;
#X obj 200 380 *~ -0.5;
#X obj 200 410 +~ 0.5;
#X obj 10 450 *~;
#X obj 350 160 random 1000;
#X obj 350 190 * 0.002;
#X obj 350 220 - 1;
#X obj 350 250 *;
#X obj 350 280 f;
#X obj 10 490 *~ 0.5;
#X obj 200 490 *~ 0.5;
#X obj 10 530 s~ vout3-L;
#X obj 200 530 s~ vout3-R;
#X connect 0 0 6 0;
#X connect 0 0 23 0;
#X connect 2 0 9 0;
#X connect 6 0 7 0;
#X connect 7 0 8 0;
#X connect 8 0 9 1;
#X connect 1 0 10 0;
#X connect 9 0 10 1;
#X connect 10 0 11 0;
#X connect 11 0 12 0;
#X connect 12 0 16 1;
#X connect 3 0 13 0;
#X connect 13 0 14 0;
#X connect 13 0 18 0;
#X connect 14 0 15 0;
#X connect 15 0 16 0;
#X connect 16 0 17 0;
#X connect 18 0 19 0;
#X connect 19 0 20 0;
#X connect 20 0 21 0;
#X connect 17 0 22 0;
#X connect 21 0 22 1;
#X connect 5 0 26 0;
#X connect 23 0 24 0;
#X connect 24 0 25 0;
#X connect 25 0 26 1;
#X connect 26 0 27 0;
#X connect 22 0 28 0;
#X connect 22 0 29 0;
#X connect 28 0 30 0;
#X connect 29 0 31 0;
#X restore 20 240 pd VOICE-3;
#N canvas 0 0 900 700 VOICE-4 12;
#X obj 10 10 r trig-4;
#X obj 10 40 r pos-n;
#X obj 10 70 r scatter-n;
#X obj 10 100 r size-ms;
#X obj 10 130 r pitch-ratio;
#X obj 10 160 r pan-spread-n;
#X obj 200 70 random 1000;
#X obj 200 100 * 0.002;
#X obj 200 130 - 1;
#X obj 200 160 *;
#X obj 10 200 +;
#X obj 10 230 clip 0 1;
#X obj 10 260 * 95999;
#X obj 10 290 expr 1000 / $f1;
#X obj 10 320 phasor~;
#X obj 10 350 *~ 95999;
#X obj 10 380 +~ 0;
#X obj 10 410 tabread4~ grain-buf;
#X obj 200 320 phasor~;
#X obj 200 350 cos~;
#X obj 200 380 *~ -0.5;
#X obj 200 410 +~ 0.5;
#X obj 10 450 *~;
#X obj 350 160 random 1000;
#X obj 350 190 * 0.002;
#X obj 350 220 - 1;
#X obj 350 250 *;
#X obj 350 280 f;
#X obj 10 490 *~ 0.5;
#X obj 200 490 *~ 0.5;
#X obj 10 530 s~ vout4-L;
#X obj 200 530 s~ vout4-R;
#X connect 0 0 6 0;
#X connect 0 0 23 0;
#X connect 2 0 9 0;
#X connect 6 0 7 0;
#X connect 7 0 8 0;
#X connect 8 0 9 1;
#X connect 1 0 10 0;
#X connect 9 0 10 1;
#X connect 10 0 11 0;
#X connect 11 0 12 0;
#X connect 12 0 16 1;
#X connect 3 0 13 0;
#X connect 13 0 14 0;
#X connect 13 0 18 0;
#X connect 14 0 15 0;
#X connect 15 0 16 0;
#X connect 16 0 17 0;
#X connect 18 0 19 0;
#X connect 19 0 20 0;
#X connect 20 0 21 0;
#X connect 17 0 22 0;
#X connect 21 0 22 1;
#X connect 5 0 26 0;
#X connect 23 0 24 0;
#X connect 24 0 25 0;
#X connect 25 0 26 1;
#X connect 26 0 27 0;
#X connect 22 0 28 0;
#X connect 22 0 29 0;
#X connect 28 0 30 0;
#X connect 29 0 31 0;
#X restore 20 280 pd VOICE-4;
#N canvas 0 0 900 700 MIXER-FX 12;
#X obj 10 10 r~ vout1-L;
#X obj 90 10 r~ vout2-L;
#X obj 170 10 r~ vout3-L;
#X obj 250 10 r~ vout4-L;
#X obj 10 40 r~ vout1-R;
#X obj 90 40 r~ vout2-R;
#X obj 170 40 r~ vout3-R;
#X obj 250 40 r~ vout4-R;
#X obj 10 80 +~;
#X obj 10 110 +~;
#X obj 10 140 +~;
#X obj 200 80 +~;
#X obj 200 110 +~;
#X obj 200 140 +~;
#X obj 10 190 r filter-freq;
#X obj 10 220 expr $f1 * 0.007874 * 18000 + 80;
#X obj 10 260 lop~ 1000;
#X obj 200 260 lop~ 1000;
#X obj 10 310 r distort-amt;
#X obj 10 340 expr $f1 * 0.007874 * 20 + 1;
#X obj 10 380 *~;
#X obj 200 380 *~;
#X obj 10 410 clip~ -1 1;
#X obj 200 410 clip~ -1 1;
#X obj 10 450 r master-vol;
#X obj 10 480 expr $f1 * 0.007874;
#X obj 10 510 line~ 10;
#X obj 200 510 line~ 10;
#X obj 10 550 *~;
#X obj 200 550 *~;
#X obj 10 590 dac~;
#X connect 0 0 8 0;
#X connect 1 0 8 1;
#X connect 2 0 9 0;
#X connect 3 0 9 1;
#X connect 8 0 10 0;
#X connect 9 0 10 1;
#X connect 4 0 11 0;
#X connect 5 0 11 1;
#X connect 6 0 12 0;
#X connect 7 0 12 1;
#X connect 11 0 13 0;
#X connect 12 0 13 1;
#X connect 14 0 15 0;
#X connect 15 0 16 1;
#X connect 15 0 17 1;
#X connect 10 0 16 0;
#X connect 13 0 17 0;
#X connect 18 0 19 0;
#X connect 16 0 20 0;
#X connect 17 0 21 0;
#X connect 19 0 20 1;
#X connect 19 0 21 1;
#X connect 20 0 22 0;
#X connect 21 0 23 0;
#X connect 24 0 25 0;
#X connect 25 0 26 0;
#X connect 25 0 27 0;
#X connect 22 0 28 0;
#X connect 23 0 29 0;
#X connect 26 0 28 1;
#X connect 27 0 29 1;
#X connect 28 0 30 0;
#X connect 29 0 30 1;
#X restore 20 320 pd MIXER-FX;
